<?xml version="1.0" encoding="UTF-8" standalone="no"?>
<!-- Created with Inkscape (http://www.inkscape.org/) -->

<svg
   width="88"
   height="31"
   viewBox="0 0 23.283333 8.2020833"
   version="1.1"
   id="svg1"
   xml:space="preserve"
   sodipodi:docname="duoFInal.svg"
   inkscape:version="1.4.2 (ebf0e940d0, 2025-05-08)"
   xmlns:inkscape="http://www.inkscape.org/namespaces/inkscape"
   xmlns:sodipodi="http://sodipodi.sourceforge.net/DTD/sodipodi-0.dtd"
   xmlns="http://www.w3.org/2000/svg"
   xmlns:svg="http://www.w3.org/2000/svg"><sodipodi:namedview
     id="namedview1"
     pagecolor="#ffffff"
     bordercolor="#000000"
     borderopacity="0.25"
     inkscape:showpageshadow="2"
     inkscape:pageopacity="0.0"
     inkscape:pagecheckerboard="0"
     inkscape:deskcolor="#d1d1d1"
     inkscape:document-units="mm"
     inkscape:zoom="8.4000299"
     inkscape:cx="44.583175"
     inkscape:cy="28.690374"
     inkscape:window-width="1497"
     inkscape:window-height="1008"
     inkscape:window-x="0"
     inkscape:window-y="0"
     inkscape:window-maximized="1"
     inkscape:current-layer="g1" /><defs
     id="defs1" /><g
     inkscape:label="Layer 1"
     inkscape:groupmode="layer"
     id="layer1"><g
       id="g1"
       transform="translate(9.0554415,-35.790554)"><g
         id="g8"
         transform="matrix(0.09989397,0,0,0.09989397,-7.841248,25.113935)"><path
           style="fill:#fefefe"
           d="M 104.775,189.44167 H -11.641665 V 148.43125 107.42083 H 104.775 221.19166 v 41.01042 41.01042 z"
           id="path8" /><path
           style="fill:#a8ea7c"
           d="M 104.775,189.44167 H -11.641665 V 148.43125 107.42083 H 104.775 221.19166 v 41.01042 41.01042 z M 18.785417,152.4 h 3.96875 v -1.32292 -1.32292 H 24.077084 25.4 v -6.61458 -6.61458 h -1.322916 -1.322917 v -1.32292 -1.32292 h -3.96875 -3.96875 v 1.32292 1.32292 h -1.322916 -1.322917 v 6.61458 6.61458 h 1.322917 1.322916 v 1.32292 1.32292 z m 1.322917,-2.64584 h -2.645833 v -3.96875 -3.96875 h 1.322916 1.322917 v -1.32291 -1.32292 h 1.322916 1.322917 v 5.29167 5.29166 z M 42.597917,152.4 h 3.96875 v -1.32292 -1.32292 h 1.322916 1.322917 v -6.61458 -6.61458 h -1.322917 -1.322916 v -1.32292 -1.32292 h -3.96875 -3.96875 v 1.32292 1.32292 H 37.30625 35.983334 v 6.61458 6.61458 h 1.322916 1.322917 V 151.07708 152.4 Z M 41.275,149.75416 h -2.645833 v -5.29166 -5.29167 H 39.952083 41.275 v 1.32292 1.32291 h 1.322917 1.322916 v 3.96875 3.96875 z"
           id="path7" /><path
           style="fill:#629afe"
           d="M 104.775,189.44167 H -11.641665 V 148.43125 107.42083 H 104.775 221.19166 v 41.01042 41.01042 z m -74.083333,-15.875 H 33.3375 v -1.32292 -1.32292 h 1.322917 1.322917 V 169.59792 168.275 H 30.691667 25.4 v 1.32292 1.32291 h 1.322917 1.322917 v 1.32292 1.32292 z m -13.229166,-7.93751 h 2.645833 v -1.32291 -1.32292 h 1.322916 1.322917 v -1.32292 -1.32291 h -5.291666 -5.291667 v 1.32291 1.32292 h 1.322917 1.322916 v 1.32292 1.32291 z m 26.458332,0 h 2.645834 v -1.32291 -1.32292 h 1.322916 1.322917 v -1.32292 -1.32291 h -5.291667 -5.291666 v 1.32291 1.32292 H 39.952083 41.275 v 1.32292 1.32291 z M 20.108334,155.04583 H 25.4 v -3.96875 -3.96875 h 5.291667 5.291667 v 3.96875 3.96875 H 41.275 46.566667 V 153.72291 152.4 h 1.322916 1.322917 v -1.32292 -1.32292 h 1.322917 1.322916 v -1.32291 -1.32292 h 1.322917 1.322916 v -3.96875 -3.96875 H 53.18125 51.858333 v -2.64583 -2.64584 h 1.322917 1.322916 v -1.32291 -1.32292 H 53.18125 51.858333 v 1.32292 1.32291 H 50.535417 49.2125 v -3.96875 -3.96875 h -1.322917 -1.322916 v 1.32292 1.32292 H 45.24375 43.920833 v 1.32291 1.32292 H 41.275 38.629167 v 1.32292 1.32291 H 37.30625 35.983334 v 1.32292 1.32292 H 30.691667 25.4 v -1.32292 -1.32292 h -1.322916 -1.322917 v -1.32291 -1.32292 h -2.645833 -2.645833 v -1.32292 -1.32291 h -1.322917 -1.322917 v -1.32292 -1.32292 h -1.322916 -1.322917 v 3.96875 3.96875 H 10.847917 9.5250007 v -1.32291 -1.32292 H 8.2020841 6.8791675 v 1.32292 1.32291 h 1.3229166 1.3229166 v 2.64584 2.64583 H 8.2020841 6.8791675 v 3.96875 3.96875 h 1.3229166 1.3229166 v 1.32292 1.32291 h 1.3229163 1.322917 v 1.32292 1.32292 h 1.322917 1.322916 v 1.32291 1.32292 z m 0,-5.29167 h -2.645833 v -3.96875 -3.96875 h 1.322916 1.322917 v -1.32291 -1.32292 h 1.322916 1.322917 v 5.29167 5.29166 z m 21.166666,0 h -2.645833 v -5.29166 -5.29167 H 39.952083 41.275 v 1.32292 1.32291 h 1.322917 1.322916 v 3.96875 3.96875 z"
           id="path6" /><path
           style="fill:#d5cc09"
           d="m 16.139584,184.15 h -3.96875 v -1.32292 -1.32291 H 10.847917 9.5250007 v -2.64584 -2.64583 H 0.26458428 -8.9958322 v -3.96875 -3.96875 h 1.3229167 1.3229166 v -2.64584 -2.64583 h 1.3229166 1.3229167 v -2.64583 -2.64584 h 1.3229166 1.3229166 V 155.04583 152.4 H 0.26458428 1.5875009 V 136.525 120.65 h 1.3229167 1.3229166 v -1.32292 -1.32292 h 1.3229166 1.3229167 v -1.32291 -1.32292 h 3.9687495 3.96875 v 1.32292 1.32291 h 2.645834 2.645833 v 1.32292 1.32292 H 22.754167 25.4 v 1.32291 1.32292 h 5.291667 5.291667 V 121.97291 120.65 H 38.629167 41.275 v -1.32292 -1.32292 h 2.645833 2.645834 v -1.32291 -1.32292 h 3.96875 3.968749 v 1.32292 1.32291 H 55.827083 57.15 v 1.32292 1.32292 h 1.322916 1.322917 v 15.875 15.875 h 1.322917 1.322916 v 2.64583 2.64583 h 1.322917 1.322917 v 2.64584 2.64583 h 1.322916 1.322917 v 2.64583 2.64584 h 1.322916 1.322917 v 3.96875 3.96875 H 61.11875 51.858333 v 2.64583 2.64584 H 50.535417 49.2125 v 1.32291 1.32292 H 45.24375 41.275 v -1.32292 -1.32291 H 30.691667 20.108334 v 1.32291 1.32292 z M 30.691667,173.56667 H 33.3375 v -1.32292 -1.32292 h 1.322917 1.322917 V 169.59792 168.275 H 30.691667 25.4 v 1.32292 1.32291 h 1.322917 1.322917 v 1.32292 1.32292 z m -13.229166,-7.93751 h 2.645833 v -1.32291 -1.32292 h 1.322916 1.322917 v -1.32292 -1.32291 h -5.291666 -5.291667 v 1.32291 1.32292 h 1.322917 1.322916 v 1.32292 1.32291 z m 26.458332,0 h 2.645834 v -1.32291 -1.32292 h 1.322916 1.322917 v -1.32292 -1.32291 h -5.291667 -5.291666 v 1.32291 1.32292 H 39.952083 41.275 v 1.32292 1.32291 z M 20.108334,155.04583 H 25.4 v -3.96875 -3.96875 h 5.291667 5.291667 v 3.96875 3.96875 H 41.275 46.566667 V 153.72291 152.4 h 1.322916 1.322917 v -1.32292 -1.32292 h 1.322917 1.322916 v -1.32291 -1.32292 h 1.322917 1.322916 v -3.96875 -3.96875 H 53.18125 51.858333 v -2.64583 -2.64584 h 1.322917 1.322916 v -1.32291 -1.32292 H 53.18125 51.858333 v 1.32292 1.32291 H 50.535417 49.2125 v -3.96875 -3.96875 h -1.322917 -1.322916 v 1.32292 1.32292 H 45.24375 43.920833 v 1.32291 1.32292 H 41.275 38.629167 v 1.32292 1.32291 H 37.30625 35.983334 v 1.32292 1.32292 H 30.691667 25.4 v -1.32292 -1.32292 h -1.322916 -1.322917 v -1.32291 -1.32292 h -2.645833 -2.645833 v -1.32292 -1.32291 h -1.322917 -1.322917 v -1.32292 -1.32292 h -1.322916 -1.322917 v 3.96875 3.96875 H 10.847917 9.5250007 v -1.32291 -1.32292 H 8.2020841 6.8791675 v 1.32292 1.32291 h 1.3229166 1.3229166 v 2.64584 2.64583 H 8.2020841 6.8791675 v 3.96875 3.96875 h 1.3229166 1.3229166 v 1.32292 1.32291 h 1.3229163 1.322917 v 1.32292 1.32292 h 1.322917 1.322916 v 1.32291 1.32292 z m 0,-5.29167 h -2.645833 v -3.96875 -3.96875 h 1.322916 1.322917 v -1.32291 -1.32292 h 1.322916 1.322917 v 5.29167 5.29166 z m 21.166666,0 h -2.645833 v -5.29166 -5.29167 H 39.952083 41.275 v 1.32292 1.32291 h 1.322917 1.322916 v 3.96875 3.96875 z M 193.41041,184.15 h -6.61458 v -1.32292 -1.32291 H 184.15 181.50416 v -1.32292 -1.32292 h -1.32291 -1.32292 v -2.64583 -2.64583 h -1.32292 -1.32291 v -2.64584 -2.64583 h -1.32292 -1.32292 v -9.26042 -9.26042 h 1.32292 1.32292 v -3.96875 -3.96875 h 1.32291 1.32292 v -2.64583 -2.64583 h 1.32292 1.32291 v -2.64584 -2.64583 h 1.32292 1.32292 v -1.32292 -1.32291 h 1.32291 1.32292 v -2.64584 -2.64583 h 1.32292 1.32291 V 120.65 118.00416 h 1.32292 1.32292 v -2.64583 -2.64583 h 1.32291 1.32292 v 2.64583 2.64583 h 1.32292 1.32291 v 2.64584 2.64583 h 1.32292 1.32292 v 2.64583 2.64584 h 1.32291 1.32292 v 1.32291 1.32292 h 1.32292 1.32291 v 2.64583 2.64584 h 1.32292 1.32292 v 2.64583 2.64583 h 1.32291 1.32292 v 3.96875 3.96875 h 1.32292 1.32291 v 9.26042 9.26042 h -1.32291 -1.32292 v 2.64583 2.64584 h -1.32292 -1.32291 v 2.64583 2.64583 h -1.32292 -1.32292 v 1.32292 1.32292 h -2.64583 -2.64583 v 1.32291 1.32292 z"
           id="path5" /><path
           style="fill:#6dca62"
           d="m 16.139584,184.15 h -3.96875 v -1.32292 -1.32291 H 10.847917 9.5250007 v -2.64584 -2.64583 H 0.26458428 -8.9958322 v -3.96875 -3.96875 h 1.3229167 1.3229166 v -2.64584 -2.64583 h 1.3229166 1.3229167 v -2.64583 -2.64584 h 1.3229166 1.3229166 V 155.04583 152.4 H 0.26458428 1.5875009 V 136.525 120.65 h 1.3229167 1.3229166 v -1.32292 -1.32292 h 1.3229166 1.3229167 v -1.32291 -1.32292 h 3.9687495 3.96875 v 1.32292 1.32291 h 2.645834 2.645833 v 1.32292 1.32292 H 22.754167 25.4 v 1.32291 1.32292 h 5.291667 5.291667 V 121.97291 120.65 H 38.629167 41.275 v -1.32292 -1.32292 h 2.645833 2.645834 v -1.32291 -1.32292 h 3.96875 3.968749 v 1.32292 1.32291 H 55.827083 57.15 v 1.32292 1.32292 h 1.322916 1.322917 v 15.875 15.875 h 1.322917 1.322916 v 2.64583 2.64583 h 1.322917 1.322917 v 2.64584 2.64583 h 1.322916 1.322917 v 2.64583 2.64584 h 1.322916 1.322917 v 3.96875 3.96875 H 61.11875 51.858333 v 2.64583 2.64584 H 50.535417 49.2125 v 1.32291 1.32292 H 45.24375 41.275 v -1.32292 -1.32291 H 30.691667 20.108334 v 1.32291 1.32292 z M 30.691667,173.56667 H 33.3375 v -1.32292 -1.32292 h 1.322917 1.322917 V 169.59792 168.275 H 30.691667 25.4 v 1.32292 1.32291 h 1.322917 1.322917 v 1.32292 1.32292 z m -13.229166,-7.93751 h 2.645833 v -1.32291 -1.32292 h 1.322916 1.322917 v -1.32292 -1.32291 h -5.291666 -5.291667 v 1.32291 1.32292 h 1.322917 1.322916 v 1.32292 1.32291 z m 26.458332,0 h 2.645834 v -1.32291 -1.32292 h 1.322916 1.322917 v -1.32292 -1.32291 h -5.291667 -5.291666 v 1.32291 1.32292 H 39.952083 41.275 v 1.32292 1.32291 z M 20.108334,155.04583 H 25.4 v -3.96875 -3.96875 h 5.291667 5.291667 v 3.96875 3.96875 H 41.275 46.566667 V 153.72291 152.4 h 1.322916 1.322917 v -1.32292 -1.32292 h 1.322917 1.322916 v -1.32291 -1.32292 h 1.322917 1.322916 v -3.96875 -3.96875 H 53.18125 51.858333 v -2.64583 -2.64584 h 1.322917 1.322916 v -1.32291 -1.32292 H 53.18125 51.858333 v 1.32292 1.32291 H 50.535417 49.2125 v -3.96875 -3.96875 h -1.322917 -1.322916 v 1.32292 1.32292 H 45.24375 43.920833 v 1.32291 1.32292 H 41.275 38.629167 v 1.32292 1.32291 H 37.30625 35.983334 v 1.32292 1.32292 H 30.691667 25.4 v -1.32292 -1.32292 h -1.322916 -1.322917 v -1.32291 -1.32292 h -2.645833 -2.645833 v -1.32292 -1.32291 h -1.322917 -1.322917 v -1.32292 -1.32292 h -1.322916 -1.322917 v 3.96875 3.96875 H 10.847917 9.5250007 v -1.32291 -1.32292 H 8.2020841 6.8791675 v 1.32292 1.32291 h 1.3229166 1.3229166 v 2.64584 2.64583 H 8.2020841 6.8791675 v 3.96875 3.96875 h 1.3229166 1.3229166 v 1.32292 1.32291 h 1.3229163 1.322917 v 1.32292 1.32292 h 1.322917 1.322916 v 1.32291 1.32292 z m 0,-5.29167 h -2.645833 v -3.96875 -3.96875 h 1.322916 1.322917 v -1.32291 -1.32292 h 1.322916 1.322917 v 5.29167 5.29166 z m 21.166666,0 h -2.645833 v -5.29166 -5.29167 H 39.952083 41.275 v 1.32292 1.32291 h 1.322917 1.322916 v 3.96875 3.96875 z M 193.41041,184.15 h -6.61458 v -1.32292 -1.32291 H 184.15 181.50416 v -1.32292 -1.32292 h -1.32291 -1.32292 v -2.64583 -2.64583 h -1.32292 -1.32291 v -2.64584 -2.64583 h -1.32292 -1.32292 v -9.26042 -9.26042 h 1.32292 1.32292 v -3.96875 -3.96875 h 1.32291 1.32292 v -2.64583 -2.64583 h 1.32292 1.32291 v -2.64584 -2.64583 h 1.32292 1.32292 v -1.32292 -1.32291 h 1.32291 1.32292 v -2.64584 -2.64583 h 1.32292 1.32291 V 120.65 118.00416 h 1.32292 1.32292 v -2.64583 -2.64583 h 1.32291 1.32292 v 2.64583 2.64583 h 1.32292 1.32291 v 2.64584 2.64583 h 1.32292 1.32292 v 2.64583 2.64584 h 1.32291 1.32292 v 1.32291 1.32292 h 1.32292 1.32291 v 2.64583 2.64584 h 1.32292 1.32292 v 2.64583 2.64583 h 1.32291 1.32292 v 3.96875 3.96875 h 1.32292 1.32291 v 9.26042 9.26042 h -1.32291 -1.32292 v 2.64583 2.64584 h -1.32292 -1.32291 v 2.64583 2.64583 h -1.32292 -1.32292 v 1.32292 1.32292 h -2.64583 -2.64583 v 1.32291 1.32292 z m 0,-5.29167 h 3.96875 v -1.32291 -1.32292 h 1.32292 1.32292 v -5.29167 -5.29167 h -1.32292 -1.32292 v -2.64583 -2.64583 h -1.32291 -1.32292 v -1.32292 -1.32292 h -1.32292 -1.32291 v 1.32292 1.32292 h -1.32292 -1.32292 v 2.64583 2.64583 h -1.32291 -1.32292 v 5.29167 5.29167 h 1.32292 1.32291 v 1.32292 1.32291 z"
           id="path4" /><path
           style="fill:#db890c"
           d="m 16.139584,184.15 h -3.96875 v -1.32292 -1.32291 H 10.847917 9.5250007 v -2.64584 -2.64583 H 0.26458428 -8.9958322 v -3.96875 -3.96875 h 1.3229167 1.3229166 v -2.64584 -2.64583 h 1.3229166 1.3229167 v -2.64583 -2.64584 h 1.3229166 1.3229166 V 155.04583 152.4 H 0.26458428 1.5875009 V 136.525 120.65 h 1.3229167 1.3229166 v -1.32292 -1.32292 h 1.3229166 1.3229167 v -1.32291 -1.32292 h 3.9687495 3.96875 v 1.32292 1.32291 h 2.645834 2.645833 v 1.32292 1.32292 H 22.754167 25.4 v 1.32291 1.32292 h 5.291667 5.291667 V 121.97291 120.65 H 38.629167 41.275 v -1.32292 -1.32292 h 2.645833 2.645834 v -1.32291 -1.32292 h 3.96875 3.968749 v 1.32292 1.32291 H 55.827083 57.15 v 1.32292 1.32292 h 1.322916 1.322917 v 15.875 15.875 h 1.322917 1.322916 v 2.64583 2.64583 h 1.322917 1.322917 v 2.64584 2.64583 h 1.322916 1.322917 v 2.64583 2.64584 h 1.322916 1.322917 v 3.96875 3.96875 H 61.11875 51.858333 v 2.64583 2.64584 H 50.535417 49.2125 v 1.32291 1.32292 H 45.24375 41.275 v -1.32292 -1.32291 H 30.691667 20.108334 v 1.32291 1.32292 z m 14.552083,-5.29167 h 15.875 v -1.32291 -1.32292 h 2.645833 2.645833 v -2.64583 -2.64584 H 54.504166 57.15 v 1.32292 1.32292 h 5.291666 5.291667 V 170.92083 168.275 H 66.410416 65.0875 v -2.64584 -2.64583 h -1.322917 -1.322917 v -2.64583 -2.64584 H 61.11875 59.795833 V 155.04583 152.4 H 58.472916 57.15 V 136.525 120.65 h -1.322917 -1.322917 v -1.32292 -1.32292 h -3.968749 -3.96875 v 1.32292 1.32292 H 43.920833 41.275 v 1.32291 1.32292 h -2.645833 -2.645833 v 1.32292 1.32291 H 30.691667 25.4 v -1.32291 -1.32292 H 22.754167 20.108334 V 121.97291 120.65 h -2.645833 -2.645834 v -1.32292 -1.32292 h -3.96875 -3.9687495 v 1.32292 1.32292 H 5.5562508 4.2333342 V 136.525 152.4 H 2.9104176 1.5875009 v 2.64583 2.64583 H 0.26458428 -1.0583324 v 2.64584 2.64583 H -2.381249 -3.7041656 v 2.64583 2.64584 h -1.3229167 -1.3229166 v 2.64583 2.64584 h 5.2916665 5.2916666 v -1.32292 -1.32292 h 2.6458333 2.6458332 v 2.64584 2.64583 h 2.6458333 2.645833 v 1.32292 1.32291 z m 0,-26.45833 h -2.645833 v -1.32292 -1.32292 H 26.722917 25.4 v -1.32291 -1.32292 h 5.291667 5.291667 v 1.32292 1.32291 H 34.660417 33.3375 v 1.32292 1.32292 z m -10.583333,-2.64584 h -2.645833 v -3.96875 -3.96875 h 1.322916 1.322917 v -1.32291 -1.32292 h 1.322916 1.322917 v 5.29167 5.29166 z m 21.166666,0 h -2.645833 v -5.29166 -5.29167 H 39.952083 41.275 v 1.32292 1.32291 h 1.322917 1.322916 v 3.96875 3.96875 z M 193.41041,184.15 h -6.61458 v -1.32292 -1.32291 H 184.15 181.50416 v -1.32292 -1.32292 h -1.32291 -1.32292 v -2.64583 -2.64583 h -1.32292 -1.32291 v -2.64584 -2.64583 h -1.32292 -1.32292 v -9.26042 -9.26042 h 1.32292 1.32292 v -3.96875 -3.96875 h 1.32291 1.32292 v -2.64583 -2.64583 h 1.32292 1.32291 v -2.64584 -2.64583 h 1.32292 1.32292 v -1.32292 -1.32291 h 1.32291 1.32292 v -2.64584 -2.64583 h 1.32292 1.32291 V 120.65 118.00416 h 1.32292 1.32292 v -2.64583 -2.64583 h 1.32291 1.32292 v 2.64583 2.64583 h 1.32292 1.32291 v 2.64584 2.64583 h 1.32292 1.32292 v 2.64583 2.64584 h 1.32291 1.32292 v 1.32291 1.32292 h 1.32292 1.32291 v 2.64583 2.64584 h 1.32292 1.32292 v 2.64583 2.64583 h 1.32291 1.32292 v 3.96875 3.96875 h 1.32292 1.32291 v 9.26042 9.26042 h -1.32291 -1.32292 v 2.64583 2.64584 h -1.32292 -1.32291 v 2.64583 2.64583 h -1.32292 -1.32292 v 1.32292 1.32292 h -2.64583 -2.64583 v 1.32291 1.32292 z m 0,-5.29167 h 3.96875 v -1.32291 -1.32292 h 1.32292 1.32292 v -5.29167 -5.29167 h -1.32292 -1.32292 v -2.64583 -2.64583 h -1.32291 -1.32292 v -1.32292 -1.32292 h -1.32292 -1.32291 v 1.32292 1.32292 h -1.32292 -1.32292 v 2.64583 2.64583 h -1.32291 -1.32292 v 5.29167 5.29167 h 1.32292 1.32291 v 1.32292 1.32291 z"
           id="path3" /><path
           style="fill:#de490f"
           d="m 16.139584,184.15 h -3.96875 v -1.32292 -1.32291 H 10.847917 9.5250007 v -2.64584 -2.64583 H 0.26458428 -8.9958322 v -3.96875 -3.96875 h 1.3229167 1.3229166 v -2.64584 -2.64583 h 1.3229166 1.3229167 v -2.64583 -2.64584 h 1.3229166 1.3229166 V 155.04583 152.4 H 0.26458428 1.5875009 V 136.525 120.65 h 1.3229167 1.3229166 v -1.32292 -1.32292 h 1.3229166 1.3229167 v -1.32291 -1.32292 h 3.9687495 3.96875 v 1.32292 1.32291 h 2.645834 2.645833 v 1.32292 1.32292 H 22.754167 25.4 v 1.32291 1.32292 h 5.291667 5.291667 V 121.97291 120.65 H 38.629167 41.275 v -1.32292 -1.32292 h 2.645833 2.645834 v -1.32291 -1.32292 h 3.96875 3.968749 v 1.32292 1.32291 H 55.827083 57.15 v 1.32292 1.32292 h 1.322916 1.322917 v 15.875 15.875 h 1.322917 1.322916 v 2.64583 2.64583 h 1.322917 1.322917 v 2.64584 2.64583 h 1.322916 1.322917 v 2.64583 2.64584 h 1.322916 1.322917 v 3.96875 3.96875 H 61.11875 51.858333 v 2.64583 2.64584 H 50.535417 49.2125 v 1.32291 1.32292 H 45.24375 41.275 v -1.32292 -1.32291 H 30.691667 20.108334 v 1.32291 1.32292 z m 0,-2.64583 h 3.96875 v -1.32292 -1.32292 H 30.691667 41.275 v 1.32292 1.32292 h 3.96875 3.96875 v -2.64584 -2.64583 h 1.322917 1.322916 v -2.64583 -2.64584 H 54.504166 57.15 v 1.32292 1.32292 h 5.291666 5.291667 V 170.92083 168.275 H 66.410416 65.0875 v -2.64584 -2.64583 h -1.322917 -1.322917 v -2.64583 -2.64584 H 61.11875 59.795833 V 155.04583 152.4 H 58.472916 57.15 V 136.525 120.65 h -1.322917 -1.322917 v -1.32292 -1.32292 h -3.968749 -3.96875 v 1.32292 1.32292 H 43.920833 41.275 v 1.32291 1.32292 h -2.645833 -2.645833 v 1.32292 1.32291 H 30.691667 25.4 v -1.32291 -1.32292 H 22.754167 20.108334 V 121.97291 120.65 h -2.645833 -2.645834 v -1.32292 -1.32292 h -3.96875 -3.9687495 v 1.32292 1.32292 H 5.5562508 4.2333342 V 136.525 152.4 H 2.9104176 1.5875009 v 2.64583 2.64583 H 0.26458428 -1.0583324 v 2.64584 2.64583 H -2.381249 -3.7041656 v 2.64583 2.64584 h -1.3229167 -1.3229166 v 2.64583 2.64584 h 5.2916665 5.2916666 v -1.32292 -1.32292 h 2.6458333 2.6458332 v 2.64584 2.64583 h 1.3229163 1.322917 v 2.64583 2.64584 z m 3.96875,-31.75001 h -2.645833 v -3.96875 -3.96875 h 1.322916 1.322917 v -1.32291 -1.32292 h 1.322916 1.322917 v 5.29167 5.29166 z m 21.166666,0 h -2.645833 v -5.29166 -5.29167 H 39.952083 41.275 v 1.32292 1.32291 h 1.322917 1.322916 v 3.96875 3.96875 z M 193.41041,184.15 h -6.61458 v -1.32292 -1.32291 H 184.15 181.50416 v -1.32292 -1.32292 h -1.32291 -1.32292 v -2.64583 -2.64583 h -1.32292 -1.32291 v -2.64584 -2.64583 h -1.32292 -1.32292 v -9.26042 -9.26042 h 1.32292 1.32292 v -3.96875 -3.96875 h 1.32291 1.32292 v -2.64583 -2.64583 h 1.32292 1.32291 v -2.64584 -2.64583 h 1.32292 1.32292 v -1.32292 -1.32291 h 1.32291 1.32292 v -2.64584 -2.64583 h 1.32292 1.32291 V 120.65 118.00416 h 1.32292 1.32292 v -2.64583 -2.64583 h 1.32291 1.32292 v 2.64583 2.64583 h 1.32292 1.32291 v 2.64584 2.64583 h 1.32292 1.32292 v 2.64583 2.64584 h 1.32291 1.32292 v 1.32291 1.32292 h 1.32292 1.32291 v 2.64583 2.64584 h 1.32292 1.32292 v 2.64583 2.64583 h 1.32291 1.32292 v 3.96875 3.96875 h 1.32292 1.32291 v 9.26042 9.26042 h -1.32291 -1.32292 v 2.64583 2.64584 h -1.32292 -1.32291 v 2.64583 2.64583 h -1.32292 -1.32292 v 1.32292 1.32292 h -2.64583 -2.64583 v 1.32291 1.32292 z m 0,-2.64583 h 3.96875 v -1.32292 -1.32292 h 2.64584 2.64583 v -2.64583 -2.64583 h 1.32292 1.32291 v -7.93751 -7.9375 h -1.32291 -1.32292 V 155.04583 152.4 h -1.32292 -1.32291 v -2.64584 -2.64583 h -1.32292 -1.32292 v -2.64583 -2.64584 h -1.32291 -1.32292 v -1.32291 -1.32292 h -1.32292 -1.32291 v 1.32292 1.32291 h -1.32292 -1.32292 v 2.64584 2.64583 h -1.32291 -1.32292 V 149.75416 152.4 H 185.47291 184.15 v 2.64583 2.64583 h -1.32292 -1.32292 v 7.9375 7.93751 h 1.32292 1.32292 v 2.64583 2.64583 h 2.64583 2.64583 v 1.32292 1.32292 z"
           id="path2" /><path
           style="fill:#000000"
           d="m 16.139584,184.15 h -3.96875 v -1.32292 -1.32291 H 10.847917 9.5250007 v -2.64584 -2.64583 H 0.26458428 -8.9958322 v -3.96875 -3.96875 h 1.3229167 1.3229166 v -2.64584 -2.64583 h 1.3229166 1.3229167 v -2.64583 -2.64584 h 1.3229166 1.3229166 V 155.04583 152.4 H 0.26458428 1.5875009 V 136.525 120.65 h 1.3229167 1.3229166 v -1.32292 -1.32292 h 1.3229166 1.3229167 v -1.32291 -1.32292 h 3.9687495 3.96875 v 1.32292 1.32291 h 2.645834 2.645833 v 1.32292 1.32292 H 22.754167 25.4 v 1.32291 1.32292 h 5.291667 5.291667 V 121.97291 120.65 H 38.629167 41.275 v -1.32292 -1.32292 h 2.645833 2.645834 v -1.32291 -1.32292 h 3.96875 3.968749 v 1.32292 1.32291 H 55.827083 57.15 v 1.32292 1.32292 h 1.322916 1.322917 v 15.875 15.875 h 1.322917 1.322916 v 2.64583 2.64583 h 1.322917 1.322917 v 2.64584 2.64583 h 1.322916 1.322917 v 2.64583 2.64584 h 1.322916 1.322917 v 3.96875 3.96875 H 61.11875 51.858333 v 2.64583 2.64584 H 50.535417 49.2125 v 1.32291 1.32292 H 45.24375 41.275 v -1.32292 -1.32291 H 30.691667 20.108334 v 1.32291 1.32292 z m 0,-2.64583 h 3.96875 v -1.32292 -1.32292 H 30.691667 41.275 v 1.32292 1.32292 h 3.96875 3.96875 v -2.64584 -2.64583 h 1.322917 1.322916 v -2.64583 -2.64584 H 54.504166 57.15 v 1.32292 1.32292 h 5.291666 5.291667 V 170.92083 168.275 H 66.410416 65.0875 v -2.64584 -2.64583 h -1.322917 -1.322917 v -2.64583 -2.64584 H 61.11875 59.795833 V 155.04583 152.4 H 58.472916 57.15 V 136.525 120.65 h -1.322917 -1.322917 v -1.32292 -1.32292 h -3.968749 -3.96875 v 1.32292 1.32292 H 43.920833 41.275 v 1.32291 1.32292 h -2.645833 -2.645833 v 1.32292 1.32291 H 30.691667 25.4 v -1.32291 -1.32292 H 22.754167 20.108334 V 121.97291 120.65 h -2.645833 -2.645834 v -1.32292 -1.32292 h -3.96875 -3.9687495 v 1.32292 1.32292 H 5.5562508 4.2333342 V 136.525 152.4 H 2.9104176 1.5875009 v 2.64583 2.64583 H 0.26458428 -1.0583324 v 2.64584 2.64583 H -2.381249 -3.7041656 v 2.64583 2.64584 h -1.3229167 -1.3229166 v 2.64583 2.64584 h 5.2916665 5.2916666 v -1.32292 -1.32292 h 2.6458333 2.6458332 v 2.64584 2.64583 h 1.3229163 1.322917 v 2.64583 2.64584 z m 3.96875,-31.75001 h -2.645833 v -3.96875 -3.96875 h 1.322916 1.322917 v -1.32291 -1.32292 h 1.322916 1.322917 v 5.29167 5.29166 z m 21.166666,0 h -2.645833 v -5.29166 -5.29167 H 39.952083 41.275 v 1.32292 1.32291 h 1.322917 1.322916 v 3.96875 3.96875 z"
           id="path1" /></g></g></g></svg>
